<svg baseProfile="full" height="3.6363636363636362cm" version="1.1" width="12.0cm" xmlns="http://www.w3.org/2000/svg" xmlns:ev="http://www.w3.org/2001/xml-events" xmlns:xlink="http://www.w3.org/1999/xlink"><defs /><polyline fill="none" points="40,30 130,30" stroke="black" stroke-width="2" /><rect fill="teal" height="12" rx="0" ry="0" stroke="black" stroke-width="1.5" width="6" x="82.5" y="25" /><text font-size="9" x="80" y="20">PS</text><text font-size="7" x="95" y="20">θ =1.047</text><polyline fill="none" points="40,60 130,60" stroke="black" stroke-width="2" /><rect fill="teal" height="12" rx="0" ry="0" stroke="black" stroke-width="1.5" width="6" x="82.5" y="55" /><text font-size="9" x="80" y="50">PS</text><text font-size="7" x="95" y="50">θ =1.047</text><polyline fill="none" points="40,90 130,90" stroke="black" stroke-width="2" /><rect fill="teal" height="12" rx="0" ry="0" stroke="black" stroke-width="1.5" width="6" x="82.5" y="85" /><text font-size="9" x="80" y="80">PS</text><text font-size="7" x="95" y="80">θ =1.047</text><polyline fill="none" points="40,120 130,120" stroke="black" stroke-width="2" /><rect fill="teal" height="12" rx="0" ry="0" stroke="black" stroke-width="1.5" width="6" x="82.5" y="115" /><text font-size="9" x="80" y="110">PS</text><text font-size="7" x="95" y="110">θ =1.047</text><polyline fill="none" points="130,30 160,30 190,60 220,60" stroke="black" stroke-width="2" /><polyline fill="none" points="130,60 160,60 190,30 220,30" stroke="black" stroke-width="2" /><text font-size="9" x="170" y="25">BS</text><text font-size="7" x="185" y="44">θ =0.785</text><text font-size="7" x="185" y="50">ϕ =1.047</text><polyline fill="none" points="130,90 160,90 190,120 220,120" stroke="black" stroke-width="2" /><polyline fill="none" points="130,120 160,120 190,90 220,90" stroke="black" stroke-width="2" /><text font-size="9" x="170" y="85">BS</text><text font-size="7" x="185" y="104">θ =0.785</text><text font-size="7" x="185" y="110">ϕ =1.047</text><polyline fill="none" points="220,60 250,60 280,90 310,90" stroke="black" stroke-width="2" /><polyline fill="none" points="220,90 250,90 280,60 310,60" stroke="black" stroke-width="2" /><text font-size="9" x="260" y="55">BS</text><text font-size="7" x="275" y="74">θ =0.785</text><text font-size="7" x="275" y="80">ϕ =1.047</text><polyline fill="none" points="310,30 340,30 370,60 400,60" stroke="black" stroke-width="2" /><polyline fill="none" points="310,60 340,60 370,30 400,30" stroke="black" stroke-width="2" /><text font-size="9" x="350" y="25">BS</text><text font-size="7" x="365" y="44">θ =1.047</text><text font-size="7" x="365" y="50">ϕ =0.785</text><polyline fill="none" points="310,90 340,90 370,120 400,120" stroke="black" stroke-width="2" /><polyline fill="none" points="310,120 340,120 370,90 400,90" stroke="black" stroke-width="2" /><text font-size="9" x="350" y="85">BS</text><text font-size="7" x="365" y="104">θ =1.047</text><text font-size="7" x="365" y="110">ϕ =0.785</text><polyline fill="none" points="220,30 310,30" stroke="black" stroke-width="2" /><polyline fill="none" points="220,120 310,120" stroke="black" stroke-width="2" /><text font-size="12" x="25" y="30">0</text><text font-size="12" x="25" y="60">1</text><text font-size="12" x="25" y="90">2</text><text font-size="12" x="25" y="120">3</text></svg>