<svg baseProfile="full" height="6.363636363636363cm" version="1.1" width="14.7cm" xmlns="http://www.w3.org/2000/svg" xmlns:ev="http://www.w3.org/2001/xml-events" xmlns:xlink="http://www.w3.org/1999/xlink"><defs /><polyline fill="none" points="40,180 130,180" stroke="black" stroke-width="2" /><rect fill="green" height="12" rx="0" ry="0" stroke="black" stroke-width="1.5" width="10" x="82.5" y="175" /><text font-size="9" x="83" y="170">D</text><text font-size="7" x="95" y="168">r =1.0</text><text font-size="7" x="95" y="174">θ =0.0</text><polyline fill="none" points="40,30 130,30" stroke="black" stroke-width="2" /><rect fill="green" height="12" rx="0" ry="0" stroke="black" stroke-width="1.5" width="10" x="82.5" y="25" /><text font-size="9" x="83" y="20">D</text><text font-size="7" x="95" y="18">r =0.056</text><text font-size="7" x="95" y="24">θ =0.0</text><polyline fill="none" points="40,60 130,60" stroke="black" stroke-width="2" /><rect fill="green" height="12" rx="0" ry="0" stroke="black" stroke-width="1.5" width="10" x="82.5" y="55" /><text font-size="9" x="83" y="50">D</text><text font-size="7" x="95" y="48">r =-0.053</text><text font-size="7" x="95" y="54">θ =0.0</text><polyline fill="none" points="40,90 130,90" stroke="black" stroke-width="2" /><rect fill="green" height="12" rx="0" ry="0" stroke="black" stroke-width="1.5" width="10" x="82.5" y="85" /><text font-size="9" x="83" y="80">D</text><text font-size="7" x="95" y="78">r =0.982</text><text font-size="7" x="95" y="84">θ =0.0</text><polyline fill="none" points="40,120 130,120" stroke="black" stroke-width="2" /><rect fill="green" height="12" rx="0" ry="0" stroke="black" stroke-width="1.5" width="10" x="82.5" y="115" /><text font-size="9" x="83" y="110">D</text><text font-size="7" x="95" y="108">r =0.525</text><text font-size="7" x="95" y="114">θ =0.0</text><polyline fill="none" points="40,150 130,150" stroke="black" stroke-width="2" /><rect fill="green" height="12" rx="0" ry="0" stroke="black" stroke-width="1.5" width="10" x="82.5" y="145" /><text font-size="9" x="83" y="140">D</text><text font-size="7" x="95" y="138">r =-0.112</text><text font-size="7" x="95" y="144">θ =0.0</text><polyline fill="none" points="130,180 220,180" stroke="black" stroke-width="2" /><rect fill="green" height="12" rx="0" ry="0" stroke="black" stroke-width="1.5" width="10" x="172.5" y="175" /><text font-size="9" x="173" y="170">D</text><text font-size="7" x="185" y="168">r =0.525</text><text font-size="7" x="185" y="174">θ =0.0</text><polyline fill="none" points="40,210 130,210" stroke="black" stroke-width="2" /><rect fill="green" height="12" rx="0" ry="0" stroke="black" stroke-width="1.5" width="10" x="82.5" y="205" /><text font-size="9" x="83" y="200">D</text><text font-size="7" x="95" y="198">r =-0.016</text><text font-size="7" x="95" y="204">θ =0.0</text><polyline fill="none" points="220,30 240,30" stroke="black" stroke-width="2" /><polyline fill="none" points="290,30 310,30" stroke="black" stroke-width="2" /><polyline fill="none" points="220,60 240,60" stroke="black" stroke-width="2" /><polyline fill="none" points="290,60 310,60" stroke="black" stroke-width="2" /><polyline fill="none" points="220,90 240,90" stroke="black" stroke-width="2" /><polyline fill="none" points="290,90 310,90" stroke="black" stroke-width="2" /><polyline fill="none" points="220,120 240,120" stroke="black" stroke-width="2" /><polyline fill="none" points="290,120 310,120" stroke="black" stroke-width="2" /><polyline fill="none" points="220,150 240,150" stroke="black" stroke-width="2" /><polyline fill="none" points="290,150 310,150" stroke="black" stroke-width="2" /><polyline fill="none" points="220,180 240,180" stroke="black" stroke-width="2" /><polyline fill="none" points="290,180 310,180" stroke="black" stroke-width="2" /><polyline fill="none" points="220,210 240,210" stroke="black" stroke-width="2" /><polyline fill="none" points="290,210 310,210" stroke="black" stroke-width="2" /><rect fill="cadetblue" height="200" rx="0" ry="0" stroke="black" stroke-width="2" width="50" x="240" y="20" /><text font-size="10" x="261" y="120.0">U</text><polyline fill="none" points="310,30 400,30" stroke="black" stroke-width="2" /><rect fill="royalblue" height="12" rx="0" ry="0" stroke="black" stroke-width="1.5" width="10" x="352.5" y="25" /><text font-size="9" x="353" y="20">S</text><text font-size="7" x="365" y="18">r =-0.097</text><text font-size="7" x="365" y="24">θ =0.0</text><polyline fill="none" points="310,60 400,60" stroke="black" stroke-width="2" /><rect fill="royalblue" height="12" rx="0" ry="0" stroke="black" stroke-width="1.5" width="10" x="352.5" y="55" /><text font-size="9" x="353" y="50">S</text><text font-size="7" x="365" y="48">r =-0.07</text><text font-size="7" x="365" y="54">θ =0.0</text><polyline fill="none" points="310,90 400,90" stroke="black" stroke-width="2" /><rect fill="royalblue" height="12" rx="0" ry="0" stroke="black" stroke-width="1.5" width="10" x="352.5" y="85" /><text font-size="9" x="353" y="80">S</text><text font-size="7" x="365" y="78">r =-0.021</text><text font-size="7" x="365" y="84">θ =0.0</text><polyline fill="none" points="310,120 400,120" stroke="black" stroke-width="2" /><rect fill="royalblue" height="12" rx="0" ry="0" stroke="black" stroke-width="1.5" width="10" x="352.5" y="115" /><text font-size="9" x="353" y="110">S</text><text font-size="7" x="365" y="108">r =0.06</text><text font-size="7" x="365" y="114">θ =0.0</text><polyline fill="none" points="310,150 400,150" stroke="black" stroke-width="2" /><rect fill="royalblue" height="12" rx="0" ry="0" stroke="black" stroke-width="1.5" width="10" x="352.5" y="145" /><text font-size="9" x="353" y="140">S</text><text font-size="7" x="365" y="138">r =0.075</text><text font-size="7" x="365" y="144">θ =0.0</text><polyline fill="none" points="310,180 400,180" stroke="black" stroke-width="2" /><rect fill="royalblue" height="12" rx="0" ry="0" stroke="black" stroke-width="1.5" width="10" x="352.5" y="175" /><text font-size="9" x="353" y="170">S</text><text font-size="7" x="365" y="168">r =0.112</text><text font-size="7" x="365" y="174">θ =0.0</text><polyline fill="none" points="310,210 400,210" stroke="black" stroke-width="2" /><rect fill="royalblue" height="12" rx="0" ry="0" stroke="black" stroke-width="1.5" width="10" x="352.5" y="205" /><text font-size="9" x="353" y="200">S</text><text font-size="7" x="365" y="198">r =0.187</text><text font-size="7" x="365" y="204">θ =0.0</text><polyline fill="none" points="400,30 420,30" stroke="black" stroke-width="2" /><polyline fill="none" points="470,30 490,30" stroke="black" stroke-width="2" /><polyline fill="none" points="400,60 420,60" stroke="black" stroke-width="2" /><polyline fill="none" points="470,60 490,60" stroke="black" stroke-width="2" /><polyline fill="none" points="400,90 420,90" stroke="black" stroke-width="2" /><polyline fill="none" points="470,90 490,90" stroke="black" stroke-width="2" /><polyline fill="none" points="400,120 420,120" stroke="black" stroke-width="2" /><polyline fill="none" points="470,120 490,120" stroke="black" stroke-width="2" /><polyline fill="none" points="400,150 420,150" stroke="black" stroke-width="2" /><polyline fill="none" points="470,150 490,150" stroke="black" stroke-width="2" /><polyline fill="none" points="400,180 420,180" stroke="black" stroke-width="2" /><polyline fill="none" points="470,180 490,180" stroke="black" stroke-width="2" /><polyline fill="none" points="400,210 420,210" stroke="black" stroke-width="2" /><polyline fill="none" points="470,210 490,210" stroke="black" stroke-width="2" /><rect fill="cadetblue" height="200" rx="0" ry="0" stroke="black" stroke-width="2" width="50" x="420" y="20" /><text font-size="10" x="441" y="120.0">U</text><polyline fill="none" points="130,30 220,30" stroke="black" stroke-width="2" /><polyline fill="none" points="130,60 220,60" stroke="black" stroke-width="2" /><polyline fill="none" points="130,90 220,90" stroke="black" stroke-width="2" /><polyline fill="none" points="130,120 220,120" stroke="black" stroke-width="2" /><polyline fill="none" points="130,150 220,150" stroke="black" stroke-width="2" /><polyline fill="none" points="130,210 220,210" stroke="black" stroke-width="2" /><text font-size="12" x="25" y="30">0</text><text font-size="12" x="25" y="60">1</text><text font-size="12" x="25" y="90">2</text><text font-size="12" x="25" y="120">3</text><text font-size="12" x="25" y="150">4</text><text font-size="12" x="25" y="180">5</text><text font-size="12" x="25" y="210">6</text></svg>