<svg baseProfile="full" height="5.454545454545454cm" version="1.1" width="22.8cm" xmlns="http://www.w3.org/2000/svg" xmlns:ev="http://www.w3.org/2001/xml-events" xmlns:xlink="http://www.w3.org/1999/xlink"><defs /><polyline fill="none" points="40,30 130,30" stroke="black" stroke-width="2" /><rect fill="royalblue" height="12" rx="0" ry="0" stroke="black" stroke-width="1.5" width="10" x="82.5" y="25" /><text font-size="9" x="83" y="20">S</text><text font-size="7" x="95" y="18">r =1</text><text font-size="7" x="95" y="24">θ =0.0</text><polyline fill="none" points="40,60 130,60" stroke="black" stroke-width="2" /><rect fill="royalblue" height="12" rx="0" ry="0" stroke="black" stroke-width="1.5" width="10" x="82.5" y="55" /><text font-size="9" x="83" y="50">S</text><text font-size="7" x="95" y="48">r =1</text><text font-size="7" x="95" y="54">θ =0.0</text><polyline fill="none" points="40,90 130,90" stroke="black" stroke-width="2" /><rect fill="royalblue" height="12" rx="0" ry="0" stroke="black" stroke-width="1.5" width="10" x="82.5" y="85" /><text font-size="9" x="83" y="80">S</text><text font-size="7" x="95" y="78">r =1</text><text font-size="7" x="95" y="84">θ =0.0</text><polyline fill="none" points="40,120 130,120" stroke="black" stroke-width="2" /><rect fill="royalblue" height="12" rx="0" ry="0" stroke="black" stroke-width="1.5" width="10" x="82.5" y="115" /><text font-size="9" x="83" y="110">S</text><text font-size="7" x="95" y="108">r =1</text><text font-size="7" x="95" y="114">θ =0.0</text><polyline fill="none" points="40,150 130,150" stroke="black" stroke-width="2" /><rect fill="royalblue" height="12" rx="0" ry="0" stroke="black" stroke-width="1.5" width="10" x="82.5" y="145" /><text font-size="9" x="83" y="140">S</text><text font-size="7" x="95" y="138">r =1</text><text font-size="7" x="95" y="144">θ =0.0</text><polyline fill="none" points="40,180 130,180" stroke="black" stroke-width="2" /><rect fill="royalblue" height="12" rx="0" ry="0" stroke="black" stroke-width="1.5" width="10" x="82.5" y="175" /><text font-size="9" x="83" y="170">S</text><text font-size="7" x="95" y="168">r =1</text><text font-size="7" x="95" y="174">θ =0.0</text><polyline fill="none" points="130,30 160,30 190,60 220,60" stroke="black" stroke-width="2" /><polyline fill="none" points="130,60 160,60 190,30 220,30" stroke="black" stroke-width="2" /><text font-size="9" x="158" y="25">MZI-PT</text><text font-size="7" x="185" y="44">θ =0.927</text><text font-size="7" x="185" y="50">ϕ =3.142</text><polyline fill="none" points="130,90 160,90 190,120 220,120" stroke="black" stroke-width="2" /><polyline fill="none" points="130,120 160,120 190,90 220,90" stroke="black" stroke-width="2" /><text font-size="9" x="158" y="85">MZI-PT</text><text font-size="7" x="185" y="104">θ =3.142</text><text font-size="7" x="185" y="110">ϕ =2.198</text><polyline fill="none" points="130,150 160,150 190,180 220,180" stroke="black" stroke-width="2" /><polyline fill="none" points="130,180 160,180 190,150 220,150" stroke="black" stroke-width="2" /><text font-size="9" x="158" y="145">MZI-PT</text><text font-size="7" x="185" y="164">θ =2.23</text><text font-size="7" x="185" y="170">ϕ =5.378</text><polyline fill="none" points="220,60 250,60 280,90 310,90" stroke="black" stroke-width="2" /><polyline fill="none" points="220,90 250,90 280,60 310,60" stroke="black" stroke-width="2" /><text font-size="9" x="248" y="55">MZI-PT</text><text font-size="7" x="275" y="74">θ =3.142</text><text font-size="7" x="275" y="80">ϕ =1.778</text><polyline fill="none" points="220,120 250,120 280,150 310,150" stroke="black" stroke-width="2" /><polyline fill="none" points="220,150 250,150 280,120 310,120" stroke="black" stroke-width="2" /><text font-size="9" x="248" y="115">MZI-PT</text><text font-size="7" x="275" y="134">θ =1.008</text><text font-size="7" x="275" y="140">ϕ =2.71</text><polyline fill="none" points="310,30 340,30 370,60 400,60" stroke="black" stroke-width="2" /><polyline fill="none" points="310,60 340,60 370,30 400,30" stroke="black" stroke-width="2" /><text font-size="9" x="338" y="25">MZI-PT</text><text font-size="7" x="365" y="44">θ =1.743</text><text font-size="7" x="365" y="50">ϕ =5.066</text><polyline fill="none" points="310,90 340,90 370,120 400,120" stroke="black" stroke-width="2" /><polyline fill="none" points="310,120 340,120 370,90 400,90" stroke="black" stroke-width="2" /><text font-size="9" x="338" y="85">MZI-PT</text><text font-size="7" x="365" y="104">θ =3.142</text><text font-size="7" x="365" y="110">ϕ =3.833</text><polyline fill="none" points="310,150 340,150 370,180 400,180" stroke="black" stroke-width="2" /><polyline fill="none" points="310,180 340,180 370,150 400,150" stroke="black" stroke-width="2" /><text font-size="9" x="338" y="145">MZI-PT</text><text font-size="7" x="365" y="164">θ =1.117</text><text font-size="7" x="365" y="170">ϕ =6.085</text><polyline fill="none" points="400,60 430,60 460,90 490,90" stroke="black" stroke-width="2" /><polyline fill="none" points="400,90 430,90 460,60 490,60" stroke="black" stroke-width="2" /><text font-size="9" x="428" y="55">MZI-PT</text><text font-size="7" x="455" y="74">θ =3.142</text><text font-size="7" x="455" y="80">ϕ =1.499</text><polyline fill="none" points="400,120 430,120 460,150 490,150" stroke="black" stroke-width="2" /><polyline fill="none" points="400,150 430,150 460,120 490,120" stroke="black" stroke-width="2" /><text font-size="9" x="428" y="115">MZI-PT</text><text font-size="7" x="455" y="134">θ =2.177</text><text font-size="7" x="455" y="140">ϕ =0.201</text><polyline fill="none" points="490,30 520,30 550,60 580,60" stroke="black" stroke-width="2" /><polyline fill="none" points="490,60 520,60 550,30 580,30" stroke="black" stroke-width="2" /><text font-size="9" x="518" y="25">MZI-PT</text><text font-size="7" x="545" y="44">θ =2.314</text><text font-size="7" x="545" y="50">ϕ =1.34</text><polyline fill="none" points="490,90 520,90 550,120 580,120" stroke="black" stroke-width="2" /><polyline fill="none" points="490,120 520,120 550,90 580,90" stroke="black" stroke-width="2" /><text font-size="9" x="518" y="85">MZI-PT</text><text font-size="7" x="545" y="104">θ =3.142</text><text font-size="7" x="545" y="110">ϕ =2.4</text><polyline fill="none" points="490,150 520,150 550,180 580,180" stroke="black" stroke-width="2" /><polyline fill="none" points="490,180 520,180 550,150 580,150" stroke="black" stroke-width="2" /><text font-size="9" x="518" y="145">MZI-PT</text><text font-size="7" x="545" y="164">θ =1.182</text><text font-size="7" x="545" y="170">ϕ =0.023</text><polyline fill="none" points="580,60 610,60 640,90 670,90" stroke="black" stroke-width="2" /><polyline fill="none" points="580,90 610,90 640,60 670,60" stroke="black" stroke-width="2" /><text font-size="9" x="608" y="55">MZI-PT</text><text font-size="7" x="635" y="74">θ =3.142</text><text font-size="7" x="635" y="80">ϕ =6.006</text><polyline fill="none" points="580,120 610,120 640,150 670,150" stroke="black" stroke-width="2" /><polyline fill="none" points="580,150 610,150 640,120 670,120" stroke="black" stroke-width="2" /><text font-size="9" x="608" y="115">MZI-PT</text><text font-size="7" x="635" y="134">θ =0.927</text><text font-size="7" x="635" y="140">ϕ =0.737</text><polyline fill="none" points="580,30 670,30" stroke="black" stroke-width="2" /><rect fill="teal" height="12" rx="0" ry="0" stroke="black" stroke-width="1.5" width="6" x="622.5" y="25" /><text font-size="9" x="620" y="20">PS</text><text font-size="7" x="635" y="20">θ =2.189</text><polyline fill="none" points="670,60 760,60" stroke="black" stroke-width="2" /><rect fill="teal" height="12" rx="0" ry="0" stroke="black" stroke-width="1.5" width="6" x="712.5" y="55" /><text font-size="9" x="710" y="50">PS</text><text font-size="7" x="725" y="50">θ =2.269</text><polyline fill="none" points="670,90 760,90" stroke="black" stroke-width="2" /><rect fill="teal" height="12" rx="0" ry="0" stroke="black" stroke-width="1.5" width="6" x="712.5" y="85" /><text font-size="9" x="710" y="80">PS</text><text font-size="7" x="725" y="80">θ =0.993</text><polyline fill="none" points="670,120 760,120" stroke="black" stroke-width="2" /><rect fill="teal" height="12" rx="0" ry="0" stroke="black" stroke-width="1.5" width="6" x="712.5" y="115" /><text font-size="9" x="710" y="110">PS</text><text font-size="7" x="725" y="110">θ =1.654</text><polyline fill="none" points="670,150 760,150" stroke="black" stroke-width="2" /><rect fill="teal" height="12" rx="0" ry="0" stroke="black" stroke-width="1.5" width="6" x="712.5" y="145" /><text font-size="9" x="710" y="140">PS</text><text font-size="7" x="725" y="140">θ =3.225</text><polyline fill="none" points="580,180 670,180" stroke="black" stroke-width="2" /><rect fill="teal" height="12" rx="0" ry="0" stroke="black" stroke-width="1.5" width="6" x="622.5" y="175" /><text font-size="9" x="620" y="170">PS</text><text font-size="7" x="635" y="170">θ =2.761</text><polyline fill="none" points="220,30 310,30" stroke="black" stroke-width="2" /><polyline fill="none" points="220,180 310,180" stroke="black" stroke-width="2" /><polyline fill="none" points="400,30 490,30" stroke="black" stroke-width="2" /><polyline fill="none" points="400,180 490,180" stroke="black" stroke-width="2" /><polyline fill="none" points="670,30 760,30" stroke="black" stroke-width="2" /><polyline fill="none" points="670,180 760,180" stroke="black" stroke-width="2" /><text font-size="12" x="25" y="30">0</text><text font-size="12" x="25" y="60">1</text><text font-size="12" x="25" y="90">2</text><text font-size="12" x="25" y="120">3</text><text font-size="12" x="25" y="150">4</text><text font-size="12" x="25" y="180">5</text></svg>
