<svg baseProfile="full" height="6.363636363636363cm" version="1.1" width="12.0cm" xmlns="http://www.w3.org/2000/svg" xmlns:ev="http://www.w3.org/2001/xml-events" xmlns:xlink="http://www.w3.org/1999/xlink"><defs /><polyline fill="none" points="40,30 130,30" stroke="black" stroke-width="2" /><rect fill="green" height="12" rx="0" ry="0" stroke="black" stroke-width="1.5" width="10" x="82.5" y="25" /><text font-size="9" x="83" y="20">D</text><text font-size="7" x="95" y="18">r =0.056</text><text font-size="7" x="95" y="24">θ =0.0</text><polyline fill="none" points="40,60 130,60" stroke="black" stroke-width="2" /><rect fill="green" height="12" rx="0" ry="0" stroke="black" stroke-width="1.5" width="10" x="82.5" y="55" /><text font-size="9" x="83" y="50">D</text><text font-size="7" x="95" y="48">r =-0.053</text><text font-size="7" x="95" y="54">θ =0.0</text><polyline fill="none" points="40,90 130,90" stroke="black" stroke-width="2" /><rect fill="green" height="12" rx="0" ry="0" stroke="black" stroke-width="1.5" width="10" x="82.5" y="85" /><text font-size="9" x="83" y="80">D</text><text font-size="7" x="95" y="78">r =0.982</text><text font-size="7" x="95" y="84">θ =0.0</text><polyline fill="none" points="40,120 130,120" stroke="black" stroke-width="2" /><rect fill="green" height="12" rx="0" ry="0" stroke="black" stroke-width="1.5" width="10" x="82.5" y="115" /><text font-size="9" x="83" y="110">D</text><text font-size="7" x="95" y="108">r =0.525</text><text font-size="7" x="95" y="114">θ =0.0</text><polyline fill="none" points="40,150 130,150" stroke="black" stroke-width="2" /><rect fill="green" height="12" rx="0" ry="0" stroke="black" stroke-width="1.5" width="10" x="82.5" y="145" /><text font-size="9" x="83" y="140">D</text><text font-size="7" x="95" y="138">r =-0.112</text><text font-size="7" x="95" y="144">θ =0.0</text><polyline fill="none" points="40,180 130,180" stroke="black" stroke-width="2" /><rect fill="green" height="12" rx="0" ry="0" stroke="black" stroke-width="1.5" width="10" x="82.5" y="175" /><text font-size="9" x="83" y="170">D</text><text font-size="7" x="95" y="168">r =0.525</text><text font-size="7" x="95" y="174">θ =0.0</text><polyline fill="none" points="40,210 130,210" stroke="black" stroke-width="2" /><rect fill="green" height="12" rx="0" ry="0" stroke="black" stroke-width="1.5" width="10" x="82.5" y="205" /><text font-size="9" x="83" y="200">D</text><text font-size="7" x="95" y="198">r =-0.016</text><text font-size="7" x="95" y="204">θ =0.0</text><polyline fill="none" points="130,30 150,30" stroke="black" stroke-width="2" /><polyline fill="none" points="200,30 220,30" stroke="black" stroke-width="2" /><polyline fill="none" points="130,60 150,60" stroke="black" stroke-width="2" /><polyline fill="none" points="200,60 220,60" stroke="black" stroke-width="2" /><polyline fill="none" points="130,90 150,90" stroke="black" stroke-width="2" /><polyline fill="none" points="200,90 220,90" stroke="black" stroke-width="2" /><polyline fill="none" points="130,120 150,120" stroke="black" stroke-width="2" /><polyline fill="none" points="200,120 220,120" stroke="black" stroke-width="2" /><polyline fill="none" points="130,150 150,150" stroke="black" stroke-width="2" /><polyline fill="none" points="200,150 220,150" stroke="black" stroke-width="2" /><polyline fill="none" points="130,180 150,180" stroke="black" stroke-width="2" /><polyline fill="none" points="200,180 220,180" stroke="black" stroke-width="2" /><polyline fill="none" points="130,210 150,210" stroke="black" stroke-width="2" /><polyline fill="none" points="200,210 220,210" stroke="black" stroke-width="2" /><rect fill="cadetblue" height="200" rx="0" ry="0" stroke="black" stroke-width="2" width="50" x="150" y="20" /><text font-size="10" x="171" y="120.0">U</text><polyline fill="none" points="220,30 310,30" stroke="black" stroke-width="2" /><rect fill="royalblue" height="12" rx="0" ry="0" stroke="black" stroke-width="1.5" width="10" x="262.5" y="25" /><text font-size="9" x="263" y="20">S</text><text font-size="7" x="275" y="18">r =-0.097</text><text font-size="7" x="275" y="24">θ =0.0</text><polyline fill="none" points="220,60 310,60" stroke="black" stroke-width="2" /><rect fill="royalblue" height="12" rx="0" ry="0" stroke="black" stroke-width="1.5" width="10" x="262.5" y="55" /><text font-size="9" x="263" y="50">S</text><text font-size="7" x="275" y="48">r =-0.07</text><text font-size="7" x="275" y="54">θ =0.0</text><polyline fill="none" points="220,90 310,90" stroke="black" stroke-width="2" /><rect fill="royalblue" height="12" rx="0" ry="0" stroke="black" stroke-width="1.5" width="10" x="262.5" y="85" /><text font-size="9" x="263" y="80">S</text><text font-size="7" x="275" y="78">r =-0.021</text><text font-size="7" x="275" y="84">θ =0.0</text><polyline fill="none" points="220,120 310,120" stroke="black" stroke-width="2" /><rect fill="royalblue" height="12" rx="0" ry="0" stroke="black" stroke-width="1.5" width="10" x="262.5" y="115" /><text font-size="9" x="263" y="110">S</text><text font-size="7" x="275" y="108">r =0.06</text><text font-size="7" x="275" y="114">θ =0.0</text><polyline fill="none" points="220,150 310,150" stroke="black" stroke-width="2" /><rect fill="royalblue" height="12" rx="0" ry="0" stroke="black" stroke-width="1.5" width="10" x="262.5" y="145" /><text font-size="9" x="263" y="140">S</text><text font-size="7" x="275" y="138">r =0.075</text><text font-size="7" x="275" y="144">θ =0.0</text><polyline fill="none" points="220,180 310,180" stroke="black" stroke-width="2" /><rect fill="royalblue" height="12" rx="0" ry="0" stroke="black" stroke-width="1.5" width="10" x="262.5" y="175" /><text font-size="9" x="263" y="170">S</text><text font-size="7" x="275" y="168">r =0.112</text><text font-size="7" x="275" y="174">θ =0.0</text><polyline fill="none" points="220,210 310,210" stroke="black" stroke-width="2" /><rect fill="royalblue" height="12" rx="0" ry="0" stroke="black" stroke-width="1.5" width="10" x="262.5" y="205" /><text font-size="9" x="263" y="200">S</text><text font-size="7" x="275" y="198">r =0.187</text><text font-size="7" x="275" y="204">θ =0.0</text><polyline fill="none" points="310,30 330,30" stroke="black" stroke-width="2" /><polyline fill="none" points="380,30 400,30" stroke="black" stroke-width="2" /><polyline fill="none" points="310,60 330,60" stroke="black" stroke-width="2" /><polyline fill="none" points="380,60 400,60" stroke="black" stroke-width="2" /><polyline fill="none" points="310,90 330,90" stroke="black" stroke-width="2" /><polyline fill="none" points="380,90 400,90" stroke="black" stroke-width="2" /><polyline fill="none" points="310,120 330,120" stroke="black" stroke-width="2" /><polyline fill="none" points="380,120 400,120" stroke="black" stroke-width="2" /><polyline fill="none" points="310,150 330,150" stroke="black" stroke-width="2" /><polyline fill="none" points="380,150 400,150" stroke="black" stroke-width="2" /><polyline fill="none" points="310,180 330,180" stroke="black" stroke-width="2" /><polyline fill="none" points="380,180 400,180" stroke="black" stroke-width="2" /><polyline fill="none" points="310,210 330,210" stroke="black" stroke-width="2" /><polyline fill="none" points="380,210 400,210" stroke="black" stroke-width="2" /><rect fill="cadetblue" height="200" rx="0" ry="0" stroke="black" stroke-width="2" width="50" x="330" y="20" /><text font-size="10" x="351" y="120.0">U</text><text font-size="12" x="25" y="30">0</text><text font-size="12" x="25" y="60">1</text><text font-size="12" x="25" y="90">2</text><text font-size="12" x="25" y="120">3</text><text font-size="12" x="25" y="150">4</text><text font-size="12" x="25" y="180">5</text><text font-size="12" x="25" y="210">6</text></svg>
